<?xml version="1.0" encoding="UTF-8"?>
<svg xmlns="http://www.w3.org/2000/svg" viewBox="0 0 64 64" role="img" aria-labelledby="title desc">
  <title id="title">vite-three-template</title>
  <desc id="desc">Seeded split-panel favicon generated from the repository name.</desc>
  <rect width="64" height="64" fill="hsl(143 34% 7%)" />
  <path d="M3 3H16L3 16Z" fill="hsl(143 82% 58%)" />
    <path d="M18 3H31L18 16Z" fill="hsl(153 42% 14%)" />
    <rect x="35" y="5" width="9" height="9" rx="2.5" fill="hsl(153 42% 14%)" />
    <path d="M48 3H61L48 16Z" fill="hsl(153 42% 14%)" />
    <rect x="3" y="18" width="13" height="13" rx="3.5" fill="hsl(297 94% 78%)" />
    <rect x="20" y="20" width="9" height="9" rx="2.5" fill="hsl(297 94% 78%)" />
    <path d="M33 18H46L33 31Z" fill="hsl(143 82% 58%)" />
    <path d="M61 18V31L48 31Z" fill="hsl(255 90% 68%)" />
    <path d="M16 33V46L3 46Z" fill="hsl(143 82% 58%)" />
    <path d="M18 33H31L18 46Z" fill="hsl(297 94% 78%)" />
    <path d="M33 33H46L33 46Z" fill="hsl(255 90% 68%)" />
    <path d="M48 33H61L48 46Z" fill="hsl(297 94% 78%)" />
    <rect x="3" y="48" width="13" height="13" rx="3.5" fill="hsl(153 42% 14%)" />
    <rect x="18" y="48" width="13" height="13" rx="3.5" fill="hsl(143 82% 58%)" />
    <rect x="35" y="50" width="9" height="9" rx="2.5" fill="hsl(255 90% 68%)" />
    <path d="M48 48H61L48 61Z" fill="hsl(143 82% 58%)" />
  <path d="M14 64L64 14" stroke="hsl(297 94% 78%)" stroke-width="4.5" stroke-linecap="round" opacity="0.85" />
    <path d="M27 64L64 27" stroke="hsl(255 90% 68%)" stroke-width="4.5" stroke-linecap="round" opacity="0.85" />
</svg>
